<?xml version="1.0" encoding="iso-8859-1"?>
<!-- Generator: Adobe Illustrator 19.0.0, SVG Export Plug-In . SVG Version: 6.00 Build 0)  -->
<svg version="1.1" id="Capa_1" xmlns="http://www.w3.org/2000/svg" xmlns:xlink="http://www.w3.org/1999/xlink" x="0px" y="0px"
	 viewBox="0 0 512.002 512.002" style="enable-background:new 0 0 512.002 512.002;" xml:space="preserve">
<path style="fill:#FFD371;" d="M371.696,272.682c0-63.897-51.799-115.695-115.695-115.695s-115.695,51.799-115.695,115.695
	s51.799,91.62,115.695,91.62S371.696,336.58,371.696,272.682z"/>
<path style="fill:#DEAF50;" d="M284.141,362.347c-9.003,1.318-18.432,1.957-28.135,1.957c-63.903,0-115.701-27.729-115.701-91.622
	S192.103,156.99,256.006,156.99c9.703,0,19.131,1.196,28.135,3.447c-50.308,12.562-87.567,58.053-87.567,112.244
	S233.833,355.047,284.141,362.347z"/>
<path style="fill:#A5E5DF;" d="M371.695,272.681c-3.944,16.09-23.765,21.707-35.738,10.26
	c-20.764-19.872-48.939-32.078-79.953-32.078c-31.024,0-59.189,12.207-79.963,32.078c-11.964,11.446-31.795,5.83-35.738-10.26
	c0-63.893,51.798-115.691,115.701-115.691C319.896,156.99,371.695,208.788,371.695,272.681z"/>
<path style="fill:#82BFB8;" d="M284.14,160.439c-48.604,12.136-85.032,55.012-87.435,106.769
	c-7.472,4.461-14.397,9.753-20.662,15.736c-11.964,11.446-31.795,5.83-35.738-10.26c0-63.893,51.798-115.691,115.701-115.691
	C265.708,156.991,275.137,158.189,284.14,160.439z"/>
<g>
	<path style="fill:#666666;" d="M216.013,113.824H24.116c-9.119,0-16.512-7.392-16.512-16.512l0,0
		c0-9.119,7.392-16.512,16.512-16.512h191.898c9.119,0,16.512,7.392,16.512,16.512l0,0
		C232.524,106.432,225.132,113.824,216.013,113.824z"/>
	<path style="fill:#666666;" d="M487.885,113.825H295.988c-9.119,0-16.512-7.392-16.512-16.512l0,0
		c0-9.119,7.392-16.512,16.512-16.512h191.898c9.119,0,16.512,7.392,16.512,16.512l0,0
		C504.396,106.432,497.004,113.825,487.885,113.825z"/>
	<circle style="fill:#666666;" cx="255.999" cy="97.311" r="23.481"/>
</g>
<g>
	<path style="fill:#FFD371;" d="M154.27,438.164h-22.494c-7.713,0-13.967-6.253-13.967-13.967l0,0
		c0-7.713,6.253-13.967,13.967-13.967h22.494c7.713,0,13.967,6.253,13.967,13.967l0,0
		C168.236,431.911,161.983,438.164,154.27,438.164z"/>
	<path style="fill:#FFD371;" d="M383.861,438.164h-22.494c-7.713,0-13.967-6.253-13.967-13.967l0,0
		c0-7.713,6.253-13.967,13.967-13.967h22.494c7.713,0,13.967,6.253,13.967,13.967l0,0
		C397.828,431.911,391.574,438.164,383.861,438.164z"/>
</g>
<path d="M487.885,73.198h-69.553c-4.199,0-7.604,3.405-7.604,7.604s3.405,7.604,7.604,7.604h69.553c4.911,0,8.908,3.996,8.908,8.908
	c0,4.911-3.996,8.907-8.908,8.907H295.988c-4.911,0-8.908-3.996-8.908-8.908s3.996-8.907,8.908-8.907h96.997
	c4.199,0,7.604-3.405,7.604-7.604s-3.405-7.604-7.604-7.604h-96.997c-5.754,0-11.041,2.028-15.191,5.404
	c-5.679-7.507-14.68-12.368-24.797-12.368s-19.117,4.861-24.796,12.368c-4.15-3.375-9.437-5.404-15.191-5.404H24.116
	C10.818,73.198,0,84.016,0,97.314s10.818,24.116,24.116,24.116h191.898c5.754,0,11.041-2.028,15.191-5.404
	c4.206,5.561,10.236,9.668,17.193,11.424v7.479c0,4.199,3.405,7.604,7.604,7.604c4.199,0,7.604-3.405,7.604-7.604v-7.479
	c6.957-1.756,12.986-5.863,17.193-11.424c4.15,3.375,9.437,5.404,15.191,5.404h191.898c13.297,0,24.116-10.818,24.116-24.116
	S501.182,73.198,487.885,73.198z M216.013,106.22H24.116c-4.911,0-8.908-3.996-8.908-8.908s3.996-8.908,8.908-8.908h191.898
	c4.911,0,8.908,3.996,8.908,8.908S220.925,106.22,216.013,106.22z M256,113.186c-8.752,0-15.872-7.12-15.872-15.872
	c0-8.752,7.119-15.872,15.872-15.872s15.872,7.12,15.872,15.872S264.752,113.186,256,113.186z"/>
<path d="M383.861,402.626h-5.097c-3.583-25.415-24.384-43.948-37.53-53.312c0.325-0.226,0.667-0.438,0.989-0.667
	c24.257-17.283,37.078-43.552,37.078-75.964c0-67.987-55.312-123.299-123.3-123.299c-26.478,0-51.715,8.268-72.984,23.911
	c-3.382,2.488-4.108,7.248-1.62,10.631c2.489,3.383,7.248,4.107,10.631,1.62c16.592-12.204,35.947-19.269,56.372-20.679V243.5
	c-29.086,1.77-56.406,13.663-77.614,33.95c-3.675,3.515-8.76,4.771-13.605,3.359c-4.567-1.331-7.884-4.658-9.249-9.161
	c0.243-25.31,9.36-49.793,25.768-69.042c2.724-3.196,2.342-7.995-0.855-10.72c-3.196-2.724-7.995-2.342-10.72,0.855
	c-18.974,22.261-29.424,50.651-29.424,79.943c0,32.413,12.821,58.681,37.078,75.964c0.321,0.229,0.662,0.44,0.986,0.666
	c-13.146,9.363-33.949,27.897-37.532,53.313h-1.458c-11.895,0-21.571,9.676-21.571,21.571c0,11.894,9.676,21.571,21.571,21.571
	h22.494c11.894,0,21.571-9.676,21.571-21.571c0-11.894-9.676-21.571-21.571-21.571h-5.606c4.517-22.805,28.089-39.385,36.813-44.822
	c19.373,9.252,43.366,14.103,70.524,14.103c27.157,0,51.15-4.849,70.522-14.102c8.733,5.443,32.296,22.022,36.811,44.821h-1.967
	c-11.895,0-21.571,9.676-21.571,21.571c0,11.894,9.676,21.571,21.571,21.571h22.494c11.895,0,21.571-9.676,21.571-21.571
	C405.431,412.303,395.755,402.626,383.861,402.626z M160.633,424.197c0,3.508-2.854,6.363-6.363,6.363h-22.494
	c-3.509,0-6.363-2.854-6.363-6.363c0-3.508,2.854-6.363,6.363-6.363h22.494C157.777,417.833,160.633,420.688,160.633,424.197z
	 M364.078,271.616c-1.36,4.519-4.681,7.855-9.259,9.189c-4.846,1.412-9.931,0.157-13.605-3.359
	c-21.204-20.286-48.522-32.177-77.608-33.947v-78.638C319.323,168.755,363.528,215.056,364.078,271.616z M178.603,336.262
	c-14.643-10.434-24.096-24.423-28.254-41.747c0.839,0.331,1.694,0.636,2.574,0.892c2.745,0.8,5.525,1.191,8.272,1.191
	c7.384,0,14.531-2.83,20.103-8.161c20.203-19.327,46.735-29.971,74.705-29.971s54.499,10.642,74.699,29.968
	c7.647,7.314,18.255,9.92,28.374,6.97c0.881-0.256,1.736-0.564,2.575-0.894c-4.157,17.326-13.61,31.316-28.254,41.751
	c-18.765,13.371-45.528,20.437-77.397,20.437S197.368,349.631,178.603,336.262z M383.861,430.56h-22.494
	c-3.509,0-6.363-2.854-6.363-6.363c0-3.508,2.854-6.363,6.363-6.363h22.494c3.509,0,6.363,2.854,6.363,6.363
	C390.224,427.705,387.37,430.56,383.861,430.56z"/>
<path d="M263.019,283.09c-1.162-2.812-3.972-4.696-7.021-4.696c-3.185,0-6.08,2.052-7.156,5.042
	c-1.096,3.048-0.071,6.563,2.48,8.551c2.52,1.964,6.079,2.116,8.773,0.41C263.152,290.459,264.429,286.431,263.019,283.09z"/>
<g>
</g>
<g>
</g>
<g>
</g>
<g>
</g>
<g>
</g>
<g>
</g>
<g>
</g>
<g>
</g>
<g>
</g>
<g>
</g>
<g>
</g>
<g>
</g>
<g>
</g>
<g>
</g>
<g>
</g>
</svg>
